<mxfile modified="2023-11-06T13:13:24.153Z" host="Electron" agent="Mozilla/5.0 (Windows NT 10.0; Win64; x64) AppleWebKit/537.36 (KHTML, like Gecko) draw.io/22.0.3 Chrome/114.0.5735.289 Electron/25.8.4 Safari/537.36" etag="K6_ln8tSCpTv9hHeQsSj" version="22.0.3" type="device">
  <diagram id="Ht1M8jgEwFfnCIfOTk4-" name="Page-1">
    <mxGraphModel dx="2589" dy="2484" grid="1" gridSize="4" guides="1" tooltips="1" connect="1" arrows="1" fold="1" page="1" pageScale="1" pageWidth="1169" pageHeight="827" math="0" shadow="0">
      <root>
        <mxCell id="0" />
        <mxCell id="1" parent="0" />
        <mxCell id="eYxBuY7Py7PClH6O-nrH-38" value="&lt;span style=&quot;font-size: 35px;&quot;&gt;Mobile Backend Serverless (DR - Multi-site Active-Active)&lt;/span&gt;" style="text;html=1;align=center;verticalAlign=middle;resizable=0;points=[];autosize=1;strokeColor=none;fillColor=none;fontSize=20;fontFamily=Architects Daughter;fontColor=#1A1A1A;rounded=0;" parent="1" vertex="1">
          <mxGeometry x="-504" y="-836" width="956" height="56" as="geometry" />
        </mxCell>
        <mxCell id="y_hJPUTwGHVDO47t9u5H-20" value="AWS Account Prod" style="points=[[0,0],[0.25,0],[0.5,0],[0.75,0],[1,0],[1,0.25],[1,0.5],[1,0.75],[1,1],[0.75,1],[0.5,1],[0.25,1],[0,1],[0,0.75],[0,0.5],[0,0.25]];outlineConnect=0;gradientColor=none;html=1;whiteSpace=wrap;fontSize=12;fontStyle=0;container=1;pointerEvents=0;collapsible=0;recursiveResize=0;shape=mxgraph.aws4.group;grIcon=mxgraph.aws4.group_aws_cloud_alt;strokeColor=#000000;fillColor=none;verticalAlign=top;align=left;spacingLeft=30;fontColor=#232F3E;dashed=0;" parent="1" vertex="1">
          <mxGeometry x="-656" y="-784" width="1308.5" height="780" as="geometry" />
        </mxCell>
        <mxCell id="kXwnOgeZQvOVhDlKrLlV-66" value="" style="sketch=0;points=[[0,0,0],[0.25,0,0],[0.5,0,0],[0.75,0,0],[1,0,0],[0,1,0],[0.25,1,0],[0.5,1,0],[0.75,1,0],[1,1,0],[0,0.25,0],[0,0.5,0],[0,0.75,0],[1,0.25,0],[1,0.5,0],[1,0.75,0]];outlineConnect=0;fontColor=#232F3E;fillColor=#8C4FFF;strokeColor=#ffffff;dashed=0;verticalLabelPosition=bottom;verticalAlign=top;align=center;html=1;fontSize=12;fontStyle=0;aspect=fixed;shape=mxgraph.aws4.resourceIcon;resIcon=mxgraph.aws4.route_53;" parent="y_hJPUTwGHVDO47t9u5H-20" vertex="1">
          <mxGeometry x="1028.5" y="8" width="52" height="52" as="geometry" />
        </mxCell>
        <mxCell id="kXwnOgeZQvOVhDlKrLlV-72" value="&lt;font data-font-src=&quot;https://fonts.googleapis.com/css?family=Architects+Daughter&quot; face=&quot;Architects Daughter&quot;&gt;Route 53&lt;/font&gt;" style="text;html=1;align=center;verticalAlign=middle;resizable=0;points=[];autosize=1;strokeColor=none;fillColor=none;" parent="y_hJPUTwGHVDO47t9u5H-20" vertex="1">
          <mxGeometry x="1016.5" y="56" width="76" height="28" as="geometry" />
        </mxCell>
        <mxCell id="WgDWQMfM7WpovqJaYr5R-154" value="Primary Region" style="points=[[0,0],[0.25,0],[0.5,0],[0.75,0],[1,0],[1,0.25],[1,0.5],[1,0.75],[1,1],[0.75,1],[0.5,1],[0.25,1],[0,1],[0,0.75],[0,0.5],[0,0.25]];outlineConnect=0;gradientColor=none;html=1;whiteSpace=wrap;fontSize=12;fontStyle=0;container=1;pointerEvents=0;collapsible=0;recursiveResize=0;shape=mxgraph.aws4.group;grIcon=mxgraph.aws4.group_region;strokeColor=#147EBA;fillColor=none;verticalAlign=top;align=left;spacingLeft=30;fontColor=#147EBA;dashed=1;" parent="y_hJPUTwGHVDO47t9u5H-20" vertex="1">
          <mxGeometry x="32" y="332" width="576" height="424" as="geometry" />
        </mxCell>
        <mxCell id="WgDWQMfM7WpovqJaYr5R-156" value="" style="sketch=0;points=[[0,0,0],[0.25,0,0],[0.5,0,0],[0.75,0,0],[1,0,0],[0,1,0],[0.25,1,0],[0.5,1,0],[0.75,1,0],[1,1,0],[0,0.25,0],[0,0.5,0],[0,0.75,0],[1,0.25,0],[1,0.5,0],[1,0.75,0]];outlineConnect=0;fontColor=#232F3E;fillColor=#E7157B;strokeColor=#ffffff;dashed=0;verticalLabelPosition=bottom;verticalAlign=top;align=center;html=1;fontSize=12;fontStyle=0;aspect=fixed;shape=mxgraph.aws4.resourceIcon;resIcon=mxgraph.aws4.api_gateway;" parent="WgDWQMfM7WpovqJaYr5R-154" vertex="1">
          <mxGeometry x="263.75" y="88" width="52" height="52" as="geometry" />
        </mxCell>
        <mxCell id="WgDWQMfM7WpovqJaYr5R-157" value="&lt;font face=&quot;Architects Daughter&quot;&gt;Amazon API Gateway&lt;/font&gt;" style="text;html=1;align=center;verticalAlign=middle;resizable=0;points=[];autosize=1;strokeColor=none;fillColor=none;" parent="WgDWQMfM7WpovqJaYr5R-154" vertex="1">
          <mxGeometry x="220" y="140" width="140" height="28" as="geometry" />
        </mxCell>
        <mxCell id="WgDWQMfM7WpovqJaYr5R-22" value="" style="sketch=0;points=[[0,0,0],[0.25,0,0],[0.5,0,0],[0.75,0,0],[1,0,0],[0,1,0],[0.25,1,0],[0.5,1,0],[0.75,1,0],[1,1,0],[0,0.25,0],[0,0.5,0],[0,0.75,0],[1,0.25,0],[1,0.5,0],[1,0.75,0]];outlineConnect=0;fontColor=#232F3E;fillColor=#ED7100;strokeColor=#ffffff;dashed=0;verticalLabelPosition=bottom;verticalAlign=top;align=center;html=1;fontSize=12;fontStyle=0;aspect=fixed;shape=mxgraph.aws4.resourceIcon;resIcon=mxgraph.aws4.lambda;" parent="WgDWQMfM7WpovqJaYr5R-154" vertex="1">
          <mxGeometry x="263.75" y="196" width="52" height="52" as="geometry" />
        </mxCell>
        <mxCell id="WgDWQMfM7WpovqJaYr5R-160" value="&lt;font face=&quot;Architects Daughter&quot;&gt;AWS Lambda&amp;nbsp;&lt;br&gt;&lt;br&gt;&lt;/font&gt;" style="text;html=1;align=center;verticalAlign=middle;resizable=0;points=[];autosize=1;strokeColor=none;fillColor=none;" parent="WgDWQMfM7WpovqJaYr5R-154" vertex="1">
          <mxGeometry x="240" y="244" width="100" height="44" as="geometry" />
        </mxCell>
        <mxCell id="WgDWQMfM7WpovqJaYr5R-52" value="" style="sketch=0;points=[[0,0,0],[0.25,0,0],[0.5,0,0],[0.75,0,0],[1,0,0],[0,1,0],[0.25,1,0],[0.5,1,0],[0.75,1,0],[1,1,0],[0,0.25,0],[0,0.5,0],[0,0.75,0],[1,0.25,0],[1,0.5,0],[1,0.75,0]];outlineConnect=0;fontColor=#232F3E;fillColor=#7AA116;strokeColor=#ffffff;dashed=0;verticalLabelPosition=bottom;verticalAlign=top;align=center;html=1;fontSize=12;fontStyle=0;aspect=fixed;shape=mxgraph.aws4.resourceIcon;resIcon=mxgraph.aws4.s3;fontFamily=Architects Daughter;fontSource=https%3A%2F%2Ffonts.googleapis.com%2Fcss%3Ffamily%3DArchitects%2BDaughter;" parent="WgDWQMfM7WpovqJaYr5R-154" vertex="1">
          <mxGeometry x="170.5" y="336" width="52" height="52" as="geometry" />
        </mxCell>
        <mxCell id="WgDWQMfM7WpovqJaYr5R-161" value="&lt;font style=&quot;font-size: 12px;&quot;&gt;S3 App Resources&lt;/font&gt;" style="text;html=1;align=center;verticalAlign=middle;resizable=0;points=[];autosize=1;strokeColor=none;fillColor=none;fontSize=16;fontFamily=Architects Daughter;fontColor=default;" parent="WgDWQMfM7WpovqJaYr5R-154" vertex="1">
          <mxGeometry x="132.5" y="384" width="128" height="32" as="geometry" />
        </mxCell>
        <mxCell id="WgDWQMfM7WpovqJaYr5R-162" value="" style="sketch=0;outlineConnect=0;fontColor=#232F3E;gradientColor=none;fillColor=#3333FF;strokeColor=none;dashed=0;verticalLabelPosition=bottom;verticalAlign=top;align=center;html=1;fontSize=12;fontStyle=0;aspect=fixed;pointerEvents=1;shape=mxgraph.aws4.aurora_instance;" parent="WgDWQMfM7WpovqJaYr5R-154" vertex="1">
          <mxGeometry x="366.5" y="336" width="52" height="52" as="geometry" />
        </mxCell>
        <mxCell id="WgDWQMfM7WpovqJaYr5R-163" value="&lt;font data-font-src=&quot;https://fonts.googleapis.com/css?family=Architects+Daughter&quot; face=&quot;Architects Daughter&quot;&gt;Amazon Aurora&lt;br&gt;Primary Serverless&lt;br&gt;&lt;/font&gt;" style="text;html=1;align=center;verticalAlign=middle;resizable=0;points=[];autosize=1;strokeColor=none;fillColor=none;" parent="WgDWQMfM7WpovqJaYr5R-154" vertex="1">
          <mxGeometry x="326.4999999999999" y="384" width="132" height="44" as="geometry" />
        </mxCell>
        <mxCell id="WgDWQMfM7WpovqJaYr5R-58" value="" style="endArrow=classic;html=1;rounded=0;labelBackgroundColor=default;sketch=1;hachureGap=4;jiggle=2;curveFitting=1;strokeColor=#6c8ebf;align=center;verticalAlign=middle;fontFamily=Architects Daughter;fontSource=https%3A%2F%2Ffonts.googleapis.com%2Fcss%3Ffamily%3DArchitects%2BDaughter;fontSize=16;fontColor=default;shape=connector;fillColor=#dae8fc;" parent="WgDWQMfM7WpovqJaYr5R-154" edge="1">
          <mxGeometry width="50" height="50" relative="1" as="geometry">
            <mxPoint x="289.5" y="160" as="sourcePoint" />
            <mxPoint x="289.5" y="196" as="targetPoint" />
          </mxGeometry>
        </mxCell>
        <mxCell id="WgDWQMfM7WpovqJaYr5R-80" value="" style="endArrow=none;html=1;rounded=0;labelBackgroundColor=default;sketch=1;hachureGap=4;jiggle=2;curveFitting=1;strokeColor=#6c8ebf;align=center;verticalAlign=middle;fontFamily=Architects Daughter;fontSource=https%3A%2F%2Ffonts.googleapis.com%2Fcss%3Ffamily%3DArchitects%2BDaughter;fontSize=16;fontColor=default;shape=connector;fillColor=#dae8fc;" parent="WgDWQMfM7WpovqJaYr5R-154" edge="1">
          <mxGeometry width="50" height="50" relative="1" as="geometry">
            <mxPoint x="390.5" y="300" as="sourcePoint" />
            <mxPoint x="198.5" y="300" as="targetPoint" />
          </mxGeometry>
        </mxCell>
        <mxCell id="WgDWQMfM7WpovqJaYr5R-87" value="" style="endArrow=none;html=1;rounded=0;labelBackgroundColor=default;sketch=1;hachureGap=4;jiggle=2;curveFitting=1;strokeColor=#6c8ebf;align=center;verticalAlign=middle;fontFamily=Architects Daughter;fontSource=https%3A%2F%2Ffonts.googleapis.com%2Fcss%3Ffamily%3DArchitects%2BDaughter;fontSize=16;fontColor=default;shape=connector;fillColor=#dae8fc;" parent="WgDWQMfM7WpovqJaYr5R-154" edge="1">
          <mxGeometry width="50" height="50" relative="1" as="geometry">
            <mxPoint x="289.25" y="264" as="sourcePoint" />
            <mxPoint x="289.25" y="300" as="targetPoint" />
          </mxGeometry>
        </mxCell>
        <mxCell id="WgDWQMfM7WpovqJaYr5R-191" value="" style="endArrow=classic;html=1;rounded=0;labelBackgroundColor=default;sketch=1;hachureGap=4;jiggle=2;curveFitting=1;strokeColor=#6c8ebf;align=center;verticalAlign=middle;fontFamily=Architects Daughter;fontSource=https%3A%2F%2Ffonts.googleapis.com%2Fcss%3Ffamily%3DArchitects%2BDaughter;fontSize=16;fontColor=default;shape=connector;fillColor=#dae8fc;" parent="WgDWQMfM7WpovqJaYr5R-154" edge="1">
          <mxGeometry width="50" height="50" relative="1" as="geometry">
            <mxPoint x="198.5" y="300" as="sourcePoint" />
            <mxPoint x="198.5" y="332" as="targetPoint" />
          </mxGeometry>
        </mxCell>
        <mxCell id="WgDWQMfM7WpovqJaYr5R-193" value="" style="endArrow=classic;html=1;rounded=0;labelBackgroundColor=default;sketch=1;hachureGap=4;jiggle=2;curveFitting=1;strokeColor=#6c8ebf;align=center;verticalAlign=middle;fontFamily=Architects Daughter;fontSource=https%3A%2F%2Ffonts.googleapis.com%2Fcss%3Ffamily%3DArchitects%2BDaughter;fontSize=16;fontColor=default;shape=connector;fillColor=#dae8fc;" parent="WgDWQMfM7WpovqJaYr5R-154" edge="1">
          <mxGeometry width="50" height="50" relative="1" as="geometry">
            <mxPoint x="390.5" y="300" as="sourcePoint" />
            <mxPoint x="390.5" y="332" as="targetPoint" />
          </mxGeometry>
        </mxCell>
        <mxCell id="z9aevK-c-Fkvyvmnop-m-42" value="&lt;font size=&quot;1&quot; face=&quot;Architects Daughter&quot;&gt;API-GW&lt;br&gt;Custom Domain&lt;br&gt;(api.myapp.com)&lt;br&gt;&lt;/font&gt;" style="rounded=1;whiteSpace=wrap;html=1;" vertex="1" parent="WgDWQMfM7WpovqJaYr5R-154">
          <mxGeometry x="238" y="20" width="99.5" height="48" as="geometry" />
        </mxCell>
        <mxCell id="WgDWQMfM7WpovqJaYr5R-174" value="" style="endArrow=classic;html=1;rounded=0;labelBackgroundColor=default;sketch=1;hachureGap=4;jiggle=2;curveFitting=1;strokeColor=#f5ad55;align=center;verticalAlign=middle;fontFamily=Architects Daughter;fontSource=https%3A%2F%2Ffonts.googleapis.com%2Fcss%3Ffamily%3DArchitects%2BDaughter;fontSize=16;fontColor=default;shape=connector;fillColor=#dae8fc;dashed=1;" parent="WgDWQMfM7WpovqJaYr5R-154" edge="1">
          <mxGeometry width="50" height="50" relative="1" as="geometry">
            <mxPoint x="196" y="440" as="sourcePoint" />
            <mxPoint x="198.5" y="407" as="targetPoint" />
          </mxGeometry>
        </mxCell>
        <mxCell id="WgDWQMfM7WpovqJaYr5R-175" value="" style="endArrow=classic;html=1;rounded=0;labelBackgroundColor=default;sketch=1;hachureGap=4;jiggle=2;curveFitting=1;strokeColor=#f5ab50;align=center;verticalAlign=middle;fontFamily=Architects Daughter;fontSource=https%3A%2F%2Ffonts.googleapis.com%2Fcss%3Ffamily%3DArchitects%2BDaughter;fontSize=16;fontColor=default;shape=connector;fillColor=#dae8fc;dashed=1;" parent="WgDWQMfM7WpovqJaYr5R-154" edge="1">
          <mxGeometry width="50" height="50" relative="1" as="geometry">
            <mxPoint x="1062" y="440" as="sourcePoint" />
            <mxPoint x="1061.5" y="411" as="targetPoint" />
          </mxGeometry>
        </mxCell>
        <mxCell id="WgDWQMfM7WpovqJaYr5R-183" value="" style="endArrow=classic;html=1;rounded=0;labelBackgroundColor=default;sketch=1;hachureGap=4;jiggle=2;curveFitting=1;strokeColor=#f5ad55;align=center;verticalAlign=middle;fontFamily=Architects Daughter;fontSource=https%3A%2F%2Ffonts.googleapis.com%2Fcss%3Ffamily%3DArchitects%2BDaughter;fontSize=16;fontColor=default;shape=connector;fillColor=#dae8fc;dashed=1;dashPattern=8 8;" parent="WgDWQMfM7WpovqJaYr5R-154" edge="1">
          <mxGeometry width="50" height="50" relative="1" as="geometry">
            <mxPoint x="836" y="380" as="sourcePoint" />
            <mxPoint x="428" y="380" as="targetPoint" />
          </mxGeometry>
        </mxCell>
        <mxCell id="z9aevK-c-Fkvyvmnop-m-57" value="" style="endArrow=classic;html=1;rounded=0;labelBackgroundColor=default;sketch=1;hachureGap=4;jiggle=2;curveFitting=1;strokeColor=#6c8ebf;align=center;verticalAlign=middle;fontFamily=Architects Daughter;fontSource=https%3A%2F%2Ffonts.googleapis.com%2Fcss%3Ffamily%3DArchitects%2BDaughter;fontSize=16;fontColor=default;shape=connector;fillColor=#dae8fc;entryX=0.5;entryY=0;entryDx=0;entryDy=0;" edge="1" parent="WgDWQMfM7WpovqJaYr5R-154">
          <mxGeometry width="50" height="50" relative="1" as="geometry">
            <mxPoint x="287.79" y="68" as="sourcePoint" />
            <mxPoint x="287.4600000000001" y="88" as="targetPoint" />
            <Array as="points">
              <mxPoint x="287.4600000000001" y="72" />
            </Array>
          </mxGeometry>
        </mxCell>
        <mxCell id="z9aevK-c-Fkvyvmnop-m-59" value="6" style="ellipse;whiteSpace=wrap;html=1;aspect=fixed;strokeWidth=2;fontFamily=Tahoma;spacingBottom=4;spacingRight=2;strokeColor=#d3d3d3;" vertex="1" parent="WgDWQMfM7WpovqJaYr5R-154">
          <mxGeometry x="532" y="320" width="20" height="20" as="geometry" />
        </mxCell>
        <mxCell id="z9aevK-c-Fkvyvmnop-m-67" value="" style="endArrow=none;html=1;rounded=0;labelBackgroundColor=default;sketch=1;hachureGap=4;jiggle=2;curveFitting=1;strokeColor=#f5ad55;align=center;verticalAlign=middle;fontFamily=Architects Daughter;fontSource=https%3A%2F%2Ffonts.googleapis.com%2Fcss%3Ffamily%3DArchitects%2BDaughter;fontSize=16;fontColor=default;shape=connector;fillColor=#fff2cc;dashed=1;" edge="1" parent="WgDWQMfM7WpovqJaYr5R-154">
          <mxGeometry width="50" height="50" relative="1" as="geometry">
            <mxPoint x="168" y="44" as="sourcePoint" />
            <mxPoint x="238" y="43.5" as="targetPoint" />
          </mxGeometry>
        </mxCell>
        <mxCell id="z9aevK-c-Fkvyvmnop-m-69" value="" style="endArrow=classic;html=1;rounded=0;labelBackgroundColor=default;sketch=1;hachureGap=4;jiggle=2;curveFitting=1;strokeColor=#f5af5a;align=center;verticalAlign=middle;fontFamily=Architects Daughter;fontSource=https%3A%2F%2Ffonts.googleapis.com%2Fcss%3Ffamily%3DArchitects%2BDaughter;fontSize=16;fontColor=default;shape=connector;fillColor=#fff2cc;dashed=1;" edge="1" parent="WgDWQMfM7WpovqJaYr5R-154">
          <mxGeometry width="50" height="50" relative="1" as="geometry">
            <mxPoint x="168" y="44" as="sourcePoint" />
            <mxPoint x="168" y="-44" as="targetPoint" />
          </mxGeometry>
        </mxCell>
        <mxCell id="WgDWQMfM7WpovqJaYr5R-155" value="Secondary Region" style="points=[[0,0],[0.25,0],[0.5,0],[0.75,0],[1,0],[1,0.25],[1,0.5],[1,0.75],[1,1],[0.75,1],[0.5,1],[0.25,1],[0,1],[0,0.75],[0,0.5],[0,0.25]];outlineConnect=0;gradientColor=none;html=1;whiteSpace=wrap;fontSize=12;fontStyle=0;container=1;pointerEvents=0;collapsible=0;recursiveResize=0;shape=mxgraph.aws4.group;grIcon=mxgraph.aws4.group_region;strokeColor=#147EBA;fillColor=none;verticalAlign=top;align=left;spacingLeft=30;fontColor=#147EBA;dashed=1;" parent="y_hJPUTwGHVDO47t9u5H-20" vertex="1">
          <mxGeometry x="700.5" y="332" width="576" height="432" as="geometry" />
        </mxCell>
        <mxCell id="z9aevK-c-Fkvyvmnop-m-41" value="&lt;font size=&quot;1&quot; face=&quot;Architects Daughter&quot;&gt;API-GW&lt;br&gt;Custom Domain&lt;br&gt;(api.myapp.com)&lt;br&gt;&lt;/font&gt;" style="rounded=1;whiteSpace=wrap;html=1;" vertex="1" parent="WgDWQMfM7WpovqJaYr5R-155">
          <mxGeometry x="238.5" y="16" width="99.5" height="48" as="geometry" />
        </mxCell>
        <mxCell id="z9aevK-c-Fkvyvmnop-m-44" value="" style="sketch=0;points=[[0,0,0],[0.25,0,0],[0.5,0,0],[0.75,0,0],[1,0,0],[0,1,0],[0.25,1,0],[0.5,1,0],[0.75,1,0],[1,1,0],[0,0.25,0],[0,0.5,0],[0,0.75,0],[1,0.25,0],[1,0.5,0],[1,0.75,0]];outlineConnect=0;fontColor=#232F3E;fillColor=#E7157B;strokeColor=#ffffff;dashed=0;verticalLabelPosition=bottom;verticalAlign=top;align=center;html=1;fontSize=12;fontStyle=0;aspect=fixed;shape=mxgraph.aws4.resourceIcon;resIcon=mxgraph.aws4.api_gateway;" vertex="1" parent="WgDWQMfM7WpovqJaYr5R-155">
          <mxGeometry x="263.25" y="92" width="52" height="52" as="geometry" />
        </mxCell>
        <mxCell id="z9aevK-c-Fkvyvmnop-m-45" value="&lt;font face=&quot;Architects Daughter&quot;&gt;Amazon API Gateway&lt;/font&gt;" style="text;html=1;align=center;verticalAlign=middle;resizable=0;points=[];autosize=1;strokeColor=none;fillColor=none;" vertex="1" parent="WgDWQMfM7WpovqJaYr5R-155">
          <mxGeometry x="219.5" y="144" width="140" height="28" as="geometry" />
        </mxCell>
        <mxCell id="z9aevK-c-Fkvyvmnop-m-46" value="" style="sketch=0;points=[[0,0,0],[0.25,0,0],[0.5,0,0],[0.75,0,0],[1,0,0],[0,1,0],[0.25,1,0],[0.5,1,0],[0.75,1,0],[1,1,0],[0,0.25,0],[0,0.5,0],[0,0.75,0],[1,0.25,0],[1,0.5,0],[1,0.75,0]];outlineConnect=0;fontColor=#232F3E;fillColor=#ED7100;strokeColor=#ffffff;dashed=0;verticalLabelPosition=bottom;verticalAlign=top;align=center;html=1;fontSize=12;fontStyle=0;aspect=fixed;shape=mxgraph.aws4.resourceIcon;resIcon=mxgraph.aws4.lambda;" vertex="1" parent="WgDWQMfM7WpovqJaYr5R-155">
          <mxGeometry x="263.25" y="200" width="52" height="52" as="geometry" />
        </mxCell>
        <mxCell id="z9aevK-c-Fkvyvmnop-m-47" value="&lt;font face=&quot;Architects Daughter&quot;&gt;AWS Lambda&amp;nbsp;&lt;br&gt;&lt;br&gt;&lt;/font&gt;" style="text;html=1;align=center;verticalAlign=middle;resizable=0;points=[];autosize=1;strokeColor=none;fillColor=none;" vertex="1" parent="WgDWQMfM7WpovqJaYr5R-155">
          <mxGeometry x="239.5" y="248" width="100" height="44" as="geometry" />
        </mxCell>
        <mxCell id="z9aevK-c-Fkvyvmnop-m-48" value="" style="sketch=0;points=[[0,0,0],[0.25,0,0],[0.5,0,0],[0.75,0,0],[1,0,0],[0,1,0],[0.25,1,0],[0.5,1,0],[0.75,1,0],[1,1,0],[0,0.25,0],[0,0.5,0],[0,0.75,0],[1,0.25,0],[1,0.5,0],[1,0.75,0]];outlineConnect=0;fontColor=#232F3E;fillColor=#7AA116;strokeColor=#ffffff;dashed=0;verticalLabelPosition=bottom;verticalAlign=top;align=center;html=1;fontSize=12;fontStyle=0;aspect=fixed;shape=mxgraph.aws4.resourceIcon;resIcon=mxgraph.aws4.s3;fontFamily=Architects Daughter;fontSource=https%3A%2F%2Ffonts.googleapis.com%2Fcss%3Ffamily%3DArchitects%2BDaughter;" vertex="1" parent="WgDWQMfM7WpovqJaYr5R-155">
          <mxGeometry x="363.5" y="340" width="52" height="52" as="geometry" />
        </mxCell>
        <mxCell id="z9aevK-c-Fkvyvmnop-m-49" value="&lt;font style=&quot;font-size: 12px;&quot;&gt;S3 App Resources&lt;/font&gt;" style="text;html=1;align=center;verticalAlign=middle;resizable=0;points=[];autosize=1;strokeColor=none;fillColor=none;fontSize=16;fontFamily=Architects Daughter;fontColor=default;" vertex="1" parent="WgDWQMfM7WpovqJaYr5R-155">
          <mxGeometry x="325.5" y="388" width="128" height="32" as="geometry" />
        </mxCell>
        <mxCell id="z9aevK-c-Fkvyvmnop-m-50" value="" style="sketch=0;outlineConnect=0;fontColor=#232F3E;gradientColor=none;fillColor=#3333FF;strokeColor=none;dashed=0;verticalLabelPosition=bottom;verticalAlign=top;align=center;html=1;fontSize=12;fontStyle=0;aspect=fixed;pointerEvents=1;shape=mxgraph.aws4.aurora_instance;" vertex="1" parent="WgDWQMfM7WpovqJaYr5R-155">
          <mxGeometry x="175.5" y="340" width="52" height="52" as="geometry" />
        </mxCell>
        <mxCell id="z9aevK-c-Fkvyvmnop-m-51" value="&lt;font data-font-src=&quot;https://fonts.googleapis.com/css?family=Architects+Daughter&quot; face=&quot;Architects Daughter&quot;&gt;Amazon Aurora&lt;br&gt;Secondary Serverless&lt;br&gt;&lt;/font&gt;" style="text;html=1;align=center;verticalAlign=middle;resizable=0;points=[];autosize=1;strokeColor=none;fillColor=none;" vertex="1" parent="WgDWQMfM7WpovqJaYr5R-155">
          <mxGeometry x="127.49999999999989" y="388" width="148" height="44" as="geometry" />
        </mxCell>
        <mxCell id="z9aevK-c-Fkvyvmnop-m-52" value="" style="endArrow=classic;html=1;rounded=0;labelBackgroundColor=default;sketch=1;hachureGap=4;jiggle=2;curveFitting=1;strokeColor=#6c8ebf;align=center;verticalAlign=middle;fontFamily=Architects Daughter;fontSource=https%3A%2F%2Ffonts.googleapis.com%2Fcss%3Ffamily%3DArchitects%2BDaughter;fontSize=16;fontColor=default;shape=connector;fillColor=#dae8fc;" edge="1" parent="WgDWQMfM7WpovqJaYr5R-155">
          <mxGeometry width="50" height="50" relative="1" as="geometry">
            <mxPoint x="289" y="164" as="sourcePoint" />
            <mxPoint x="289" y="200" as="targetPoint" />
          </mxGeometry>
        </mxCell>
        <mxCell id="z9aevK-c-Fkvyvmnop-m-53" value="" style="endArrow=none;html=1;rounded=0;labelBackgroundColor=default;sketch=1;hachureGap=4;jiggle=2;curveFitting=1;strokeColor=#6c8ebf;align=center;verticalAlign=middle;fontFamily=Architects Daughter;fontSource=https%3A%2F%2Ffonts.googleapis.com%2Fcss%3Ffamily%3DArchitects%2BDaughter;fontSize=16;fontColor=default;shape=connector;fillColor=#dae8fc;" edge="1" parent="WgDWQMfM7WpovqJaYr5R-155">
          <mxGeometry width="50" height="50" relative="1" as="geometry">
            <mxPoint x="390" y="304" as="sourcePoint" />
            <mxPoint x="198" y="304" as="targetPoint" />
          </mxGeometry>
        </mxCell>
        <mxCell id="z9aevK-c-Fkvyvmnop-m-54" value="" style="endArrow=none;html=1;rounded=0;labelBackgroundColor=default;sketch=1;hachureGap=4;jiggle=2;curveFitting=1;strokeColor=#6c8ebf;align=center;verticalAlign=middle;fontFamily=Architects Daughter;fontSource=https%3A%2F%2Ffonts.googleapis.com%2Fcss%3Ffamily%3DArchitects%2BDaughter;fontSize=16;fontColor=default;shape=connector;fillColor=#dae8fc;" edge="1" parent="WgDWQMfM7WpovqJaYr5R-155">
          <mxGeometry width="50" height="50" relative="1" as="geometry">
            <mxPoint x="288.75" y="268" as="sourcePoint" />
            <mxPoint x="288.75" y="304" as="targetPoint" />
          </mxGeometry>
        </mxCell>
        <mxCell id="z9aevK-c-Fkvyvmnop-m-55" value="" style="endArrow=classic;html=1;rounded=0;labelBackgroundColor=default;sketch=1;hachureGap=4;jiggle=2;curveFitting=1;strokeColor=#6c8ebf;align=center;verticalAlign=middle;fontFamily=Architects Daughter;fontSource=https%3A%2F%2Ffonts.googleapis.com%2Fcss%3Ffamily%3DArchitects%2BDaughter;fontSize=16;fontColor=default;shape=connector;fillColor=#dae8fc;" edge="1" parent="WgDWQMfM7WpovqJaYr5R-155">
          <mxGeometry width="50" height="50" relative="1" as="geometry">
            <mxPoint x="198" y="304" as="sourcePoint" />
            <mxPoint x="198" y="336" as="targetPoint" />
          </mxGeometry>
        </mxCell>
        <mxCell id="z9aevK-c-Fkvyvmnop-m-56" value="" style="endArrow=classic;html=1;rounded=0;labelBackgroundColor=default;sketch=1;hachureGap=4;jiggle=2;curveFitting=1;strokeColor=#6c8ebf;align=center;verticalAlign=middle;fontFamily=Architects Daughter;fontSource=https%3A%2F%2Ffonts.googleapis.com%2Fcss%3Ffamily%3DArchitects%2BDaughter;fontSize=16;fontColor=default;shape=connector;fillColor=#dae8fc;" edge="1" parent="WgDWQMfM7WpovqJaYr5R-155">
          <mxGeometry width="50" height="50" relative="1" as="geometry">
            <mxPoint x="390" y="304" as="sourcePoint" />
            <mxPoint x="390" y="336" as="targetPoint" />
          </mxGeometry>
        </mxCell>
        <mxCell id="z9aevK-c-Fkvyvmnop-m-58" value="" style="endArrow=classic;html=1;rounded=0;labelBackgroundColor=default;sketch=1;hachureGap=4;jiggle=2;curveFitting=1;strokeColor=#6c8ebf;align=center;verticalAlign=middle;fontFamily=Architects Daughter;fontSource=https%3A%2F%2Ffonts.googleapis.com%2Fcss%3Ffamily%3DArchitects%2BDaughter;fontSize=16;fontColor=default;shape=connector;fillColor=#dae8fc;entryX=0.5;entryY=0;entryDx=0;entryDy=0;" edge="1" parent="WgDWQMfM7WpovqJaYr5R-155">
          <mxGeometry width="50" height="50" relative="1" as="geometry">
            <mxPoint x="287.83000000000004" y="68" as="sourcePoint" />
            <mxPoint x="287.5000000000001" y="88" as="targetPoint" />
            <Array as="points">
              <mxPoint x="287.5000000000001" y="72" />
            </Array>
          </mxGeometry>
        </mxCell>
        <mxCell id="z9aevK-c-Fkvyvmnop-m-68" value="" style="endArrow=none;html=1;rounded=0;labelBackgroundColor=default;sketch=1;hachureGap=4;jiggle=2;curveFitting=1;strokeColor=#f5ad55;align=center;verticalAlign=middle;fontFamily=Architects Daughter;fontSource=https%3A%2F%2Ffonts.googleapis.com%2Fcss%3Ffamily%3DArchitects%2BDaughter;fontSize=16;fontColor=default;shape=connector;fillColor=#fff2cc;dashed=1;" edge="1" parent="WgDWQMfM7WpovqJaYr5R-155">
          <mxGeometry width="50" height="50" relative="1" as="geometry">
            <mxPoint x="343.5" y="40" as="sourcePoint" />
            <mxPoint x="413.5" y="39.5" as="targetPoint" />
          </mxGeometry>
        </mxCell>
        <mxCell id="z9aevK-c-Fkvyvmnop-m-70" value="" style="endArrow=classic;html=1;rounded=0;labelBackgroundColor=default;sketch=1;hachureGap=4;jiggle=2;curveFitting=1;strokeColor=#f5af5a;align=center;verticalAlign=middle;fontFamily=Architects Daughter;fontSource=https%3A%2F%2Ffonts.googleapis.com%2Fcss%3Ffamily%3DArchitects%2BDaughter;fontSize=16;fontColor=default;shape=connector;fillColor=#fff2cc;dashed=1;" edge="1" parent="WgDWQMfM7WpovqJaYr5R-155">
          <mxGeometry width="50" height="50" relative="1" as="geometry">
            <mxPoint x="411.5" y="39" as="sourcePoint" />
            <mxPoint x="411.5" y="-49" as="targetPoint" />
          </mxGeometry>
        </mxCell>
        <mxCell id="WgDWQMfM7WpovqJaYr5R-176" value="&lt;font data-font-src=&quot;https://fonts.googleapis.com/css?family=Architects+Daughter&quot; face=&quot;Architects Daughter&quot;&gt;&lt;b&gt;Two-way bucket replication&lt;/b&gt;&lt;/font&gt;" style="text;html=1;align=center;verticalAlign=middle;resizable=0;points=[];autosize=1;strokeColor=none;fillColor=none;" parent="y_hJPUTwGHVDO47t9u5H-20" vertex="1">
          <mxGeometry x="566.25" y="748" width="176" height="28" as="geometry" />
        </mxCell>
        <mxCell id="WgDWQMfM7WpovqJaYr5R-180" value="&lt;b&gt;&lt;font data-font-src=&quot;https://fonts.googleapis.com/css?family=Architects+Daughter&quot; face=&quot;Architects Daughter&quot;&gt;Write Forwarding&lt;/font&gt;&lt;/b&gt;" style="text;html=1;align=center;verticalAlign=middle;resizable=0;points=[];autosize=1;strokeColor=none;fillColor=none;" parent="y_hJPUTwGHVDO47t9u5H-20" vertex="1">
          <mxGeometry x="592.25" y="680" width="124" height="28" as="geometry" />
        </mxCell>
        <mxCell id="WgDWQMfM7WpovqJaYr5R-178" value="&lt;font data-font-src=&quot;https://fonts.googleapis.com/css?family=Architects+Daughter&quot; face=&quot;Architects Daughter&quot;&gt;&lt;b&gt;Aurora Global Database&lt;/b&gt;&lt;/font&gt;" style="text;html=1;align=center;verticalAlign=middle;resizable=0;points=[];autosize=1;strokeColor=none;fillColor=none;" parent="y_hJPUTwGHVDO47t9u5H-20" vertex="1">
          <mxGeometry x="584" y="648" width="152" height="28" as="geometry" />
        </mxCell>
        <mxCell id="WgDWQMfM7WpovqJaYr5R-181" value="" style="endArrow=classic;html=1;rounded=0;labelBackgroundColor=default;sketch=1;hachureGap=4;jiggle=2;curveFitting=1;strokeColor=#f5ab50;align=center;verticalAlign=middle;fontFamily=Architects Daughter;fontSource=https%3A%2F%2Ffonts.googleapis.com%2Fcss%3Ffamily%3DArchitects%2BDaughter;fontSize=16;fontColor=default;shape=connector;fillColor=#dae8fc;dashed=1;dashPattern=8 8;" parent="y_hJPUTwGHVDO47t9u5H-20" edge="1">
          <mxGeometry width="50" height="50" relative="1" as="geometry">
            <mxPoint x="460" y="680" as="sourcePoint" />
            <mxPoint x="868" y="680" as="targetPoint" />
          </mxGeometry>
        </mxCell>
        <mxCell id="z9aevK-c-Fkvyvmnop-m-2" value="" style="sketch=0;points=[[0,0,0],[0.25,0,0],[0.5,0,0],[0.75,0,0],[1,0,0],[0,1,0],[0.25,1,0],[0.5,1,0],[0.75,1,0],[1,1,0],[0,0.25,0],[0,0.5,0],[0,0.75,0],[1,0.25,0],[1,0.5,0],[1,0.75,0]];outlineConnect=0;fontColor=#232F3E;fillColor=#8C4FFF;strokeColor=#ffffff;dashed=0;verticalLabelPosition=bottom;verticalAlign=top;align=center;html=1;fontSize=12;fontStyle=0;aspect=fixed;shape=mxgraph.aws4.resourceIcon;resIcon=mxgraph.aws4.cloudfront;" vertex="1" parent="y_hJPUTwGHVDO47t9u5H-20">
          <mxGeometry x="628.25" y="88" width="52" height="52" as="geometry" />
        </mxCell>
        <mxCell id="z9aevK-c-Fkvyvmnop-m-3" value="&lt;p style=&quot;line-height: 90%;&quot;&gt;CloudFront&lt;br&gt;Edge&lt;br&gt;(eu-west-2&lt;/p&gt;" style="sketch=0;outlineConnect=0;fontColor=#232F3E;gradientColor=none;strokeColor=#ffffff;fillColor=#232F3E;dashed=0;verticalLabelPosition=middle;verticalAlign=bottom;align=center;html=1;whiteSpace=wrap;fontSize=10;fontStyle=1;spacing=3;shape=mxgraph.aws4.productIcon;prIcon=mxgraph.aws4.cloudfront;" vertex="1" parent="y_hJPUTwGHVDO47t9u5H-20">
          <mxGeometry x="294.25" y="168" width="51.5" height="96" as="geometry" />
        </mxCell>
        <mxCell id="z9aevK-c-Fkvyvmnop-m-5" value="" style="outlineConnect=0;dashed=0;verticalLabelPosition=bottom;verticalAlign=top;align=center;html=1;shape=mxgraph.aws3.management_console;fillColor=#D2D3D3;gradientColor=none;" vertex="1" parent="y_hJPUTwGHVDO47t9u5H-20">
          <mxGeometry x="630.25" y="8" width="48" height="52" as="geometry" />
        </mxCell>
        <mxCell id="z9aevK-c-Fkvyvmnop-m-6" value="&lt;p style=&quot;line-height: 90%;&quot;&gt;CloudFront&lt;br&gt;Edge&lt;br&gt;(us-east-1&lt;/p&gt;" style="sketch=0;outlineConnect=0;fontColor=#232F3E;gradientColor=none;strokeColor=#ffffff;fillColor=#232F3E;dashed=0;verticalLabelPosition=middle;verticalAlign=bottom;align=center;html=1;whiteSpace=wrap;fontSize=10;fontStyle=1;spacing=3;shape=mxgraph.aws4.productIcon;prIcon=mxgraph.aws4.cloudfront;" vertex="1" parent="y_hJPUTwGHVDO47t9u5H-20">
          <mxGeometry x="962.75" y="168" width="51.5" height="96" as="geometry" />
        </mxCell>
        <mxCell id="z9aevK-c-Fkvyvmnop-m-7" value="" style="endArrow=classic;html=1;rounded=0;labelBackgroundColor=default;sketch=1;hachureGap=4;jiggle=2;curveFitting=1;strokeColor=#6c8ebf;align=center;verticalAlign=middle;fontFamily=Architects Daughter;fontSource=https%3A%2F%2Ffonts.googleapis.com%2Fcss%3Ffamily%3DArchitects%2BDaughter;fontSize=16;fontColor=default;shape=connector;fillColor=#dae8fc;" edge="1" parent="y_hJPUTwGHVDO47t9u5H-20">
          <mxGeometry width="50" height="50" relative="1" as="geometry">
            <mxPoint x="653.54" y="60" as="sourcePoint" />
            <mxPoint x="653.5" y="88" as="targetPoint" />
          </mxGeometry>
        </mxCell>
        <mxCell id="WgDWQMfM7WpovqJaYr5R-188" value="" style="endArrow=none;html=1;rounded=0;labelBackgroundColor=default;sketch=1;hachureGap=4;jiggle=2;curveFitting=1;strokeColor=#6c8ebf;align=center;verticalAlign=middle;fontFamily=Architects Daughter;fontSource=https%3A%2F%2Ffonts.googleapis.com%2Fcss%3Ffamily%3DArchitects%2BDaughter;fontSize=16;fontColor=default;shape=connector;fillColor=#dae8fc;" parent="y_hJPUTwGHVDO47t9u5H-20" edge="1" target="z9aevK-c-Fkvyvmnop-m-8">
          <mxGeometry width="50" height="50" relative="1" as="geometry">
            <mxPoint x="680.25" y="29.71" as="sourcePoint" />
            <mxPoint x="696.5" y="30" as="targetPoint" />
          </mxGeometry>
        </mxCell>
        <mxCell id="z9aevK-c-Fkvyvmnop-m-8" value="&lt;font data-font-src=&quot;https://fonts.googleapis.com/css?family=Architects+Daughter&quot; face=&quot;Architects Daughter&quot;&gt;myapp.com&lt;/font&gt;" style="text;html=1;align=center;verticalAlign=middle;resizable=0;points=[];autosize=1;strokeColor=none;fillColor=none;" vertex="1" parent="y_hJPUTwGHVDO47t9u5H-20">
          <mxGeometry x="812.5" y="16" width="84" height="28" as="geometry" />
        </mxCell>
        <mxCell id="z9aevK-c-Fkvyvmnop-m-9" value="" style="endArrow=classic;html=1;rounded=0;labelBackgroundColor=default;sketch=1;hachureGap=4;jiggle=2;curveFitting=1;strokeColor=#6c8ebf;align=center;verticalAlign=middle;fontFamily=Architects Daughter;fontSource=https%3A%2F%2Ffonts.googleapis.com%2Fcss%3Ffamily%3DArchitects%2BDaughter;fontSize=16;fontColor=default;shape=connector;fillColor=#dae8fc;" edge="1" parent="y_hJPUTwGHVDO47t9u5H-20" source="z9aevK-c-Fkvyvmnop-m-8">
          <mxGeometry width="50" height="50" relative="1" as="geometry">
            <mxPoint x="980.5" y="33.710000000000036" as="sourcePoint" />
            <mxPoint x="1024.5" y="30" as="targetPoint" />
          </mxGeometry>
        </mxCell>
        <mxCell id="z9aevK-c-Fkvyvmnop-m-11" value="&lt;font style=&quot;font-size: 9px;&quot; data-font-src=&quot;https://fonts.googleapis.com/css?family=Architects+Daughter&quot; face=&quot;Architects Daughter&quot;&gt;myapp.com -&amp;gt; ALIAS x.cloudfront.net&lt;/font&gt;" style="rounded=1;whiteSpace=wrap;html=1;" vertex="1" parent="y_hJPUTwGHVDO47t9u5H-20">
          <mxGeometry x="1128.5" y="24" width="163.5" height="20" as="geometry" />
        </mxCell>
        <mxCell id="z9aevK-c-Fkvyvmnop-m-12" value="1" style="ellipse;whiteSpace=wrap;html=1;aspect=fixed;strokeWidth=2;fontFamily=Tahoma;spacingBottom=4;spacingRight=2;strokeColor=#d3d3d3;" vertex="1" parent="y_hJPUTwGHVDO47t9u5H-20">
          <mxGeometry x="804.5" y="40" width="20" height="20" as="geometry" />
        </mxCell>
        <mxCell id="z9aevK-c-Fkvyvmnop-m-13" value="2" style="ellipse;whiteSpace=wrap;html=1;aspect=fixed;strokeWidth=2;fontFamily=Tahoma;spacingBottom=4;spacingRight=2;strokeColor=#d3d3d3;" vertex="1" parent="y_hJPUTwGHVDO47t9u5H-20">
          <mxGeometry x="620.5" y="64" width="20" height="20" as="geometry" />
        </mxCell>
        <mxCell id="WgDWQMfM7WpovqJaYr5R-182" value="" style="endArrow=none;html=1;rounded=0;labelBackgroundColor=default;sketch=1;hachureGap=4;jiggle=2;curveFitting=1;strokeColor=#6c8ebf;align=center;verticalAlign=middle;fontFamily=Architects Daughter;fontSource=https%3A%2F%2Ffonts.googleapis.com%2Fcss%3Ffamily%3DArchitects%2BDaughter;fontSize=16;fontColor=default;shape=connector;fillColor=#dae8fc;" parent="y_hJPUTwGHVDO47t9u5H-20" edge="1">
          <mxGeometry width="50" height="50" relative="1" as="geometry">
            <mxPoint x="988.25" y="152" as="sourcePoint" />
            <mxPoint x="320.25" y="152" as="targetPoint" />
          </mxGeometry>
        </mxCell>
        <mxCell id="z9aevK-c-Fkvyvmnop-m-14" value="" style="endArrow=none;html=1;rounded=0;labelBackgroundColor=default;sketch=1;hachureGap=4;jiggle=2;curveFitting=1;strokeColor=#6c8ebf;align=center;verticalAlign=middle;fontFamily=Architects Daughter;fontSource=https%3A%2F%2Ffonts.googleapis.com%2Fcss%3Ffamily%3DArchitects%2BDaughter;fontSize=16;fontColor=default;shape=connector;fillColor=#dae8fc;" edge="1" parent="y_hJPUTwGHVDO47t9u5H-20">
          <mxGeometry width="50" height="50" relative="1" as="geometry">
            <mxPoint x="653.83" y="140" as="sourcePoint" />
            <mxPoint x="654.08" y="156" as="targetPoint" />
          </mxGeometry>
        </mxCell>
        <mxCell id="z9aevK-c-Fkvyvmnop-m-15" value="3" style="ellipse;whiteSpace=wrap;html=1;aspect=fixed;strokeWidth=2;fontFamily=Tahoma;spacingBottom=4;spacingRight=2;strokeColor=#d3d3d3;" vertex="1" parent="y_hJPUTwGHVDO47t9u5H-20">
          <mxGeometry x="996.5" y="144" width="20" height="20" as="geometry" />
        </mxCell>
        <mxCell id="z9aevK-c-Fkvyvmnop-m-16" value="3" style="ellipse;whiteSpace=wrap;html=1;aspect=fixed;strokeWidth=2;fontFamily=Tahoma;spacingBottom=4;spacingRight=2;strokeColor=#d3d3d3;" vertex="1" parent="y_hJPUTwGHVDO47t9u5H-20">
          <mxGeometry x="294.25" y="144" width="20" height="20" as="geometry" />
        </mxCell>
        <mxCell id="z9aevK-c-Fkvyvmnop-m-17" value="" style="endArrow=none;html=1;rounded=0;labelBackgroundColor=default;sketch=1;hachureGap=4;jiggle=2;curveFitting=1;strokeColor=#6c8ebf;align=center;verticalAlign=middle;fontFamily=Architects Daughter;fontSource=https%3A%2F%2Ffonts.googleapis.com%2Fcss%3Ffamily%3DArchitects%2BDaughter;fontSize=16;fontColor=default;shape=connector;fillColor=#dae8fc;" edge="1" parent="y_hJPUTwGHVDO47t9u5H-20">
          <mxGeometry width="50" height="50" relative="1" as="geometry">
            <mxPoint x="988.25" y="280" as="sourcePoint" />
            <mxPoint x="320.25" y="280" as="targetPoint" />
          </mxGeometry>
        </mxCell>
        <mxCell id="z9aevK-c-Fkvyvmnop-m-18" value="" style="endArrow=none;html=1;rounded=0;labelBackgroundColor=default;sketch=1;hachureGap=4;jiggle=2;curveFitting=1;strokeColor=#6c8ebf;align=center;verticalAlign=middle;fontFamily=Architects Daughter;fontSource=https%3A%2F%2Ffonts.googleapis.com%2Fcss%3Ffamily%3DArchitects%2BDaughter;fontSize=16;fontColor=default;shape=connector;fillColor=#dae8fc;" edge="1" parent="y_hJPUTwGHVDO47t9u5H-20">
          <mxGeometry width="50" height="50" relative="1" as="geometry">
            <mxPoint x="988.5" y="264" as="sourcePoint" />
            <mxPoint x="988.0799999999999" y="280" as="targetPoint" />
          </mxGeometry>
        </mxCell>
        <mxCell id="z9aevK-c-Fkvyvmnop-m-19" value="" style="endArrow=none;html=1;rounded=0;labelBackgroundColor=default;sketch=1;hachureGap=4;jiggle=2;curveFitting=1;strokeColor=#6c8ebf;align=center;verticalAlign=middle;fontFamily=Architects Daughter;fontSource=https%3A%2F%2Ffonts.googleapis.com%2Fcss%3Ffamily%3DArchitects%2BDaughter;fontSize=16;fontColor=default;shape=connector;fillColor=#dae8fc;" edge="1" parent="y_hJPUTwGHVDO47t9u5H-20">
          <mxGeometry width="50" height="50" relative="1" as="geometry">
            <mxPoint x="319.5799999999999" y="264" as="sourcePoint" />
            <mxPoint x="319.5799999999999" y="280" as="targetPoint" />
          </mxGeometry>
        </mxCell>
        <mxCell id="z9aevK-c-Fkvyvmnop-m-20" value="" style="endArrow=none;html=1;rounded=0;labelBackgroundColor=default;sketch=1;hachureGap=4;jiggle=2;curveFitting=1;strokeColor=#6c8ebf;align=center;verticalAlign=middle;fontFamily=Architects Daughter;fontSource=https%3A%2F%2Ffonts.googleapis.com%2Fcss%3Ffamily%3DArchitects%2BDaughter;fontSize=16;fontColor=default;shape=connector;fillColor=#dae8fc;" edge="1" parent="y_hJPUTwGHVDO47t9u5H-20">
          <mxGeometry width="50" height="50" relative="1" as="geometry">
            <mxPoint x="988.25" y="312" as="sourcePoint" />
            <mxPoint x="320.25" y="312" as="targetPoint" />
          </mxGeometry>
        </mxCell>
        <mxCell id="z9aevK-c-Fkvyvmnop-m-21" value="" style="endArrow=none;html=1;rounded=0;labelBackgroundColor=default;sketch=1;hachureGap=4;jiggle=2;curveFitting=1;strokeColor=#6c8ebf;align=center;verticalAlign=middle;fontFamily=Architects Daughter;fontSource=https%3A%2F%2Ffonts.googleapis.com%2Fcss%3Ffamily%3DArchitects%2BDaughter;fontSize=16;fontColor=default;shape=connector;fillColor=#dae8fc;" edge="1" parent="y_hJPUTwGHVDO47t9u5H-20">
          <mxGeometry width="50" height="50" relative="1" as="geometry">
            <mxPoint x="653.83" y="284" as="sourcePoint" />
            <mxPoint x="653.83" y="308" as="targetPoint" />
          </mxGeometry>
        </mxCell>
        <mxCell id="z9aevK-c-Fkvyvmnop-m-22" value="" style="endArrow=classic;html=1;rounded=0;labelBackgroundColor=default;sketch=1;hachureGap=4;jiggle=2;curveFitting=1;strokeColor=#6c8ebf;align=center;verticalAlign=middle;fontFamily=Architects Daughter;fontSource=https%3A%2F%2Ffonts.googleapis.com%2Fcss%3Ffamily%3DArchitects%2BDaughter;fontSize=16;fontColor=default;shape=connector;fillColor=#dae8fc;" edge="1" parent="y_hJPUTwGHVDO47t9u5H-20">
          <mxGeometry width="50" height="50" relative="1" as="geometry">
            <mxPoint x="988.0799999999999" y="152" as="sourcePoint" />
            <mxPoint x="988.0799999999999" y="172" as="targetPoint" />
          </mxGeometry>
        </mxCell>
        <mxCell id="z9aevK-c-Fkvyvmnop-m-23" value="" style="endArrow=classic;html=1;rounded=0;labelBackgroundColor=default;sketch=1;hachureGap=4;jiggle=2;curveFitting=1;strokeColor=#6c8ebf;align=center;verticalAlign=middle;fontFamily=Architects Daughter;fontSource=https%3A%2F%2Ffonts.googleapis.com%2Fcss%3Ffamily%3DArchitects%2BDaughter;fontSize=16;fontColor=default;shape=connector;fillColor=#dae8fc;" edge="1" parent="y_hJPUTwGHVDO47t9u5H-20">
          <mxGeometry width="50" height="50" relative="1" as="geometry">
            <mxPoint x="319.5799999999999" y="152" as="sourcePoint" />
            <mxPoint x="319.5799999999999" y="172" as="targetPoint" />
          </mxGeometry>
        </mxCell>
        <mxCell id="z9aevK-c-Fkvyvmnop-m-24" value="" style="endArrow=classic;html=1;rounded=0;labelBackgroundColor=default;sketch=1;hachureGap=4;jiggle=2;curveFitting=1;strokeColor=#6c8ebf;align=center;verticalAlign=middle;fontFamily=Architects Daughter;fontSource=https%3A%2F%2Ffonts.googleapis.com%2Fcss%3Ffamily%3DArchitects%2BDaughter;fontSize=16;fontColor=default;shape=connector;fillColor=#dae8fc;entryX=0.5;entryY=0;entryDx=0;entryDy=0;" edge="1" parent="y_hJPUTwGHVDO47t9u5H-20" target="z9aevK-c-Fkvyvmnop-m-41">
          <mxGeometry width="50" height="50" relative="1" as="geometry">
            <mxPoint x="988.3299999999999" y="312" as="sourcePoint" />
            <mxPoint x="988.3299999999999" y="332" as="targetPoint" />
            <Array as="points">
              <mxPoint x="989" y="336" />
            </Array>
          </mxGeometry>
        </mxCell>
        <mxCell id="z9aevK-c-Fkvyvmnop-m-26" value="" style="endArrow=classic;html=1;rounded=0;labelBackgroundColor=default;sketch=1;hachureGap=4;jiggle=2;curveFitting=1;strokeColor=#6c8ebf;align=center;verticalAlign=middle;fontFamily=Architects Daughter;fontSource=https%3A%2F%2Ffonts.googleapis.com%2Fcss%3Ffamily%3DArchitects%2BDaughter;fontSize=16;fontColor=default;shape=connector;fillColor=#dae8fc;entryX=0.5;entryY=0;entryDx=0;entryDy=0;" edge="1" parent="y_hJPUTwGHVDO47t9u5H-20" target="z9aevK-c-Fkvyvmnop-m-42">
          <mxGeometry width="50" height="50" relative="1" as="geometry">
            <mxPoint x="319.8299999999999" y="312" as="sourcePoint" />
            <mxPoint x="319.8299999999999" y="332" as="targetPoint" />
          </mxGeometry>
        </mxCell>
        <mxCell id="z9aevK-c-Fkvyvmnop-m-27" value="" style="endArrow=none;html=1;rounded=0;labelBackgroundColor=default;sketch=1;hachureGap=4;jiggle=2;curveFitting=1;strokeColor=#f5ad55;align=center;verticalAlign=middle;fontFamily=Architects Daughter;fontSource=https%3A%2F%2Ffonts.googleapis.com%2Fcss%3Ffamily%3DArchitects%2BDaughter;fontSize=16;fontColor=default;shape=connector;fillColor=#fff2cc;" edge="1" parent="y_hJPUTwGHVDO47t9u5H-20">
          <mxGeometry width="50" height="50" relative="1" as="geometry">
            <mxPoint x="961.38" y="208" as="sourcePoint" />
            <mxPoint x="347.13" y="208" as="targetPoint" />
          </mxGeometry>
        </mxCell>
        <mxCell id="z9aevK-c-Fkvyvmnop-m-28" value="4" style="ellipse;whiteSpace=wrap;html=1;aspect=fixed;strokeWidth=2;fontFamily=Tahoma;spacingBottom=4;spacingRight=2;strokeColor=#d3d3d3;" vertex="1" parent="y_hJPUTwGHVDO47t9u5H-20">
          <mxGeometry x="644.25" y="220" width="20" height="20" as="geometry" />
        </mxCell>
        <mxCell id="z9aevK-c-Fkvyvmnop-m-29" value="&lt;p style=&quot;line-height: 80%;&quot;&gt;&lt;font style=&quot;font-size: 8px;&quot; data-font-src=&quot;https://fonts.googleapis.com/css?family=Architects+Daughter&quot; face=&quot;Architects Daughter&quot;&gt;api.myapp.com -&amp;gt; ALIAS api.gw.custom-domain.eu.west-2.com -&amp;gt; LATENCY eu-west-2&lt;/font&gt;&lt;/p&gt;&lt;p style=&quot;line-height: 80%;&quot;&gt;&lt;font style=&quot;font-size: 8px;&quot; data-font-src=&quot;https://fonts.googleapis.com/css?family=Architects+Daughter&quot; face=&quot;Architects Daughter&quot;&gt;api.myapp.com -&amp;gt; ALIAS api.gw.custom-domain.us.east-1.com -&amp;gt; LATENCY us-east-1&lt;br&gt;&lt;/font&gt;&lt;/p&gt;" style="rounded=1;whiteSpace=wrap;html=1;" vertex="1" parent="y_hJPUTwGHVDO47t9u5H-20">
          <mxGeometry x="1124.5" y="80" width="171.5" height="56" as="geometry" />
        </mxCell>
        <mxCell id="z9aevK-c-Fkvyvmnop-m-30" value="" style="endArrow=none;html=1;rounded=0;labelBackgroundColor=default;sketch=1;hachureGap=4;jiggle=2;curveFitting=1;strokeColor=#f5ad55;align=center;verticalAlign=middle;fontFamily=Architects Daughter;fontSource=https%3A%2F%2Ffonts.googleapis.com%2Fcss%3Ffamily%3DArchitects%2BDaughter;fontSize=16;fontColor=default;shape=connector;fillColor=#fff2cc;" edge="1" parent="y_hJPUTwGHVDO47t9u5H-20">
          <mxGeometry width="50" height="50" relative="1" as="geometry">
            <mxPoint x="1016.5" y="208" as="sourcePoint" />
            <mxPoint x="1052.5" y="208" as="targetPoint" />
          </mxGeometry>
        </mxCell>
        <mxCell id="z9aevK-c-Fkvyvmnop-m-31" value="&lt;font style=&quot;font-size: 10px;&quot; data-font-src=&quot;https://fonts.googleapis.com/css?family=Architects+Daughter&quot; face=&quot;Architects Daughter&quot;&gt;api.myapp.com&lt;/font&gt;" style="text;html=1;align=center;verticalAlign=middle;resizable=0;points=[];autosize=1;strokeColor=none;fillColor=none;" vertex="1" parent="y_hJPUTwGHVDO47t9u5H-20">
          <mxGeometry x="1010.5" y="104" width="88" height="28" as="geometry" />
        </mxCell>
        <mxCell id="WgDWQMfM7WpovqJaYr5R-189" value="" style="endArrow=classic;html=1;rounded=0;labelBackgroundColor=default;sketch=1;hachureGap=4;jiggle=2;curveFitting=1;strokeColor=#f5af5a;align=center;verticalAlign=middle;fontFamily=Architects Daughter;fontSource=https%3A%2F%2Ffonts.googleapis.com%2Fcss%3Ffamily%3DArchitects%2BDaughter;fontSize=16;fontColor=default;shape=connector;fillColor=#fff2cc;" parent="y_hJPUTwGHVDO47t9u5H-20" edge="1">
          <mxGeometry width="50" height="50" relative="1" as="geometry">
            <mxPoint x="1054.5" y="112" as="sourcePoint" />
            <mxPoint x="1054.21" y="76" as="targetPoint" />
          </mxGeometry>
        </mxCell>
        <mxCell id="z9aevK-c-Fkvyvmnop-m-33" value="" style="endArrow=none;html=1;rounded=0;labelBackgroundColor=default;sketch=1;hachureGap=4;jiggle=2;curveFitting=1;strokeColor=#f5ad55;align=center;verticalAlign=middle;fontFamily=Architects Daughter;fontSource=https%3A%2F%2Ffonts.googleapis.com%2Fcss%3Ffamily%3DArchitects%2BDaughter;fontSize=16;fontColor=default;shape=connector;fillColor=#fff2cc;" edge="1" parent="y_hJPUTwGHVDO47t9u5H-20">
          <mxGeometry width="50" height="50" relative="1" as="geometry">
            <mxPoint x="1054.5" y="128" as="sourcePoint" />
            <mxPoint x="1054.21" y="208" as="targetPoint" />
          </mxGeometry>
        </mxCell>
        <mxCell id="z9aevK-c-Fkvyvmnop-m-34" value="4" style="ellipse;whiteSpace=wrap;html=1;aspect=fixed;strokeWidth=2;fontFamily=Tahoma;spacingBottom=4;spacingRight=2;strokeColor=#d3d3d3;" vertex="1" parent="y_hJPUTwGHVDO47t9u5H-20">
          <mxGeometry x="1028.5" y="88" width="20" height="20" as="geometry" />
        </mxCell>
        <mxCell id="z9aevK-c-Fkvyvmnop-m-35" value="" style="endArrow=none;html=1;rounded=0;labelBackgroundColor=default;sketch=1;hachureGap=4;jiggle=2;curveFitting=1;strokeColor=#f5ad55;align=center;verticalAlign=middle;fontFamily=Architects Daughter;fontSource=https%3A%2F%2Ffonts.googleapis.com%2Fcss%3Ffamily%3DArchitects%2BDaughter;fontSize=16;fontColor=default;shape=connector;fillColor=#fff2cc;dashed=1;" edge="1" parent="y_hJPUTwGHVDO47t9u5H-20">
          <mxGeometry width="50" height="50" relative="1" as="geometry">
            <mxPoint x="1080.5" y="52" as="sourcePoint" />
            <mxPoint x="1104.5" y="52.289999999999964" as="targetPoint" />
          </mxGeometry>
        </mxCell>
        <mxCell id="z9aevK-c-Fkvyvmnop-m-36" value="" style="endArrow=none;html=1;rounded=0;labelBackgroundColor=default;sketch=1;hachureGap=4;jiggle=2;curveFitting=1;strokeColor=#f5ad55;align=center;verticalAlign=middle;fontFamily=Architects Daughter;fontSource=https%3A%2F%2Ffonts.googleapis.com%2Fcss%3Ffamily%3DArchitects%2BDaughter;fontSize=16;fontColor=default;shape=connector;fillColor=#fff2cc;dashed=1;" edge="1" parent="y_hJPUTwGHVDO47t9u5H-20">
          <mxGeometry width="50" height="50" relative="1" as="geometry">
            <mxPoint x="1104.79" y="52" as="sourcePoint" />
            <mxPoint x="1104.5" y="108" as="targetPoint" />
          </mxGeometry>
        </mxCell>
        <mxCell id="z9aevK-c-Fkvyvmnop-m-10" value="" style="endArrow=classic;html=1;rounded=0;labelBackgroundColor=default;sketch=1;hachureGap=4;jiggle=2;curveFitting=1;strokeColor=#f5ad55;align=center;verticalAlign=middle;fontFamily=Architects Daughter;fontSource=https%3A%2F%2Ffonts.googleapis.com%2Fcss%3Ffamily%3DArchitects%2BDaughter;fontSize=16;fontColor=default;shape=connector;fillColor=#fff2cc;dashed=1;" edge="1" parent="y_hJPUTwGHVDO47t9u5H-20">
          <mxGeometry width="50" height="50" relative="1" as="geometry">
            <mxPoint x="1104.5" y="108" as="sourcePoint" />
            <mxPoint x="1124.5" y="108" as="targetPoint" />
          </mxGeometry>
        </mxCell>
        <mxCell id="z9aevK-c-Fkvyvmnop-m-39" value="5" style="ellipse;whiteSpace=wrap;html=1;aspect=fixed;strokeWidth=2;fontFamily=Tahoma;spacingBottom=4;spacingRight=2;strokeColor=#d3d3d3;" vertex="1" parent="y_hJPUTwGHVDO47t9u5H-20">
          <mxGeometry x="994.25" y="304" width="20" height="20" as="geometry" />
        </mxCell>
        <mxCell id="z9aevK-c-Fkvyvmnop-m-40" value="5" style="ellipse;whiteSpace=wrap;html=1;aspect=fixed;strokeWidth=2;fontFamily=Tahoma;spacingBottom=4;spacingRight=2;strokeColor=#d3d3d3;" vertex="1" parent="y_hJPUTwGHVDO47t9u5H-20">
          <mxGeometry x="292.5" y="304" width="20" height="20" as="geometry" />
        </mxCell>
        <mxCell id="WgDWQMfM7WpovqJaYr5R-173" value="" style="endArrow=none;html=1;rounded=0;labelBackgroundColor=default;hachureGap=4;strokeColor=#f5b464;align=center;verticalAlign=middle;fontFamily=Architects Daughter;fontSource=https%3A%2F%2Ffonts.googleapis.com%2Fcss%3Ffamily%3DArchitects%2BDaughter;fontSize=16;fontColor=default;shape=connector;fillColor=#dae8fc;dashed=1;dashPattern=8 8;sketch=1;curveFitting=1;jiggle=2;" parent="y_hJPUTwGHVDO47t9u5H-20" edge="1">
          <mxGeometry width="50" height="50" relative="1" as="geometry">
            <mxPoint x="228.5" y="772" as="sourcePoint" />
            <mxPoint x="1092.5" y="772" as="targetPoint" />
          </mxGeometry>
        </mxCell>
        <mxCell id="z9aevK-c-Fkvyvmnop-m-60" value="7" style="ellipse;whiteSpace=wrap;html=1;aspect=fixed;strokeWidth=2;fontFamily=Tahoma;spacingBottom=4;spacingRight=2;strokeColor=#d3d3d3;" vertex="1" parent="y_hJPUTwGHVDO47t9u5H-20">
          <mxGeometry x="644.25" y="736" width="20" height="20" as="geometry" />
        </mxCell>
        <mxCell id="z9aevK-c-Fkvyvmnop-m-63" value="" style="sketch=0;points=[[0,0,0],[0.25,0,0],[0.5,0,0],[0.75,0,0],[1,0,0],[0,1,0],[0.25,1,0],[0.5,1,0],[0.75,1,0],[1,1,0],[0,0.25,0],[0,0.5,0],[0,0.75,0],[1,0.25,0],[1,0.5,0],[1,0.75,0]];outlineConnect=0;fontColor=#232F3E;fillColor=#DD344C;strokeColor=#ffffff;dashed=0;verticalLabelPosition=bottom;verticalAlign=top;align=center;html=1;fontSize=12;fontStyle=0;aspect=fixed;shape=mxgraph.aws4.resourceIcon;resIcon=mxgraph.aws4.certificate_manager_3;" vertex="1" parent="y_hJPUTwGHVDO47t9u5H-20">
          <mxGeometry x="172" y="220" width="52" height="52" as="geometry" />
        </mxCell>
        <mxCell id="z9aevK-c-Fkvyvmnop-m-64" value="" style="sketch=0;points=[[0,0,0],[0.25,0,0],[0.5,0,0],[0.75,0,0],[1,0,0],[0,1,0],[0.25,1,0],[0.5,1,0],[0.75,1,0],[1,1,0],[0,0.25,0],[0,0.5,0],[0,0.75,0],[1,0.25,0],[1,0.5,0],[1,0.75,0]];outlineConnect=0;fontColor=#232F3E;fillColor=#DD344C;strokeColor=#ffffff;dashed=0;verticalLabelPosition=bottom;verticalAlign=top;align=center;html=1;fontSize=12;fontStyle=0;aspect=fixed;shape=mxgraph.aws4.resourceIcon;resIcon=mxgraph.aws4.certificate_manager_3;" vertex="1" parent="y_hJPUTwGHVDO47t9u5H-20">
          <mxGeometry x="1084.5" y="215" width="52" height="52" as="geometry" />
        </mxCell>
        <mxCell id="z9aevK-c-Fkvyvmnop-m-65" value="&lt;font data-font-src=&quot;https://fonts.googleapis.com/css?family=Architects+Daughter&quot; face=&quot;Architects Daughter&quot;&gt;Aws Certificate Manager&lt;/font&gt;" style="text;html=1;align=center;verticalAlign=middle;resizable=0;points=[];autosize=1;strokeColor=none;fillColor=none;" vertex="1" parent="y_hJPUTwGHVDO47t9u5H-20">
          <mxGeometry x="116" y="267" width="164" height="28" as="geometry" />
        </mxCell>
        <mxCell id="z9aevK-c-Fkvyvmnop-m-66" value="&lt;font data-font-src=&quot;https://fonts.googleapis.com/css?family=Architects+Daughter&quot; face=&quot;Architects Daughter&quot;&gt;Aws Certificate Manager&lt;/font&gt;" style="text;html=1;align=center;verticalAlign=middle;resizable=0;points=[];autosize=1;strokeColor=none;fillColor=none;" vertex="1" parent="y_hJPUTwGHVDO47t9u5H-20">
          <mxGeometry x="1028.5" y="264" width="164" height="28" as="geometry" />
        </mxCell>
        <mxCell id="WgDWQMfM7WpovqJaYr5R-196" value="&lt;font data-font-src=&quot;https://fonts.googleapis.com/css?family=Architects+Daughter&quot; face=&quot;Architects Daughter&quot;&gt;Latency DNS routing&lt;/font&gt;" style="text;html=1;align=center;verticalAlign=middle;resizable=0;points=[];autosize=1;strokeColor=none;fillColor=none;" parent="y_hJPUTwGHVDO47t9u5H-20" vertex="1">
          <mxGeometry x="1064" y="156" width="140" height="28" as="geometry" />
        </mxCell>
        <mxCell id="WgDWQMfM7WpovqJaYr5R-198" value="&lt;font data-font-src=&quot;https://fonts.googleapis.com/css?family=Architects+Daughter&quot; face=&quot;Architects Daughter&quot;&gt;Active&lt;/font&gt;" style="text;html=1;align=center;verticalAlign=middle;resizable=0;points=[];autosize=1;strokeColor=none;fillColor=none;" parent="y_hJPUTwGHVDO47t9u5H-20" vertex="1">
          <mxGeometry x="452" y="116" width="56" height="28" as="geometry" />
        </mxCell>
        <mxCell id="WgDWQMfM7WpovqJaYr5R-197" value="&lt;font data-font-src=&quot;https://fonts.googleapis.com/css?family=Architects+Daughter&quot; face=&quot;Architects Daughter&quot;&gt;Active&lt;/font&gt;" style="text;html=1;align=center;verticalAlign=middle;resizable=0;points=[];autosize=1;strokeColor=none;fillColor=none;" parent="y_hJPUTwGHVDO47t9u5H-20" vertex="1">
          <mxGeometry x="796" y="116" width="56" height="28" as="geometry" />
        </mxCell>
        <mxCell id="z9aevK-c-Fkvyvmnop-m-37" value="" style="endArrow=classic;html=1;rounded=0;labelBackgroundColor=default;sketch=1;hachureGap=4;jiggle=2;curveFitting=1;strokeColor=#6c8ebf;align=center;verticalAlign=middle;fontFamily=Architects Daughter;fontSource=https%3A%2F%2Ffonts.googleapis.com%2Fcss%3Ffamily%3DArchitects%2BDaughter;fontSize=16;fontColor=default;shape=connector;fillColor=#dae8fc;dashed=1;" edge="1" parent="1">
          <mxGeometry width="50" height="50" relative="1" as="geometry">
            <mxPoint x="428.5" y="-746.29" as="sourcePoint" />
            <mxPoint x="472.5" y="-746.29" as="targetPoint" />
          </mxGeometry>
        </mxCell>
      </root>
    </mxGraphModel>
  </diagram>
</mxfile>
